<?xml version="1.0" encoding="UTF-8" standalone="no"?>
<!-- Svg Vector Icons : http://www.onlinewebfonts.com/icon -->

<svg
   xmlns:dc="http://purl.org/dc/elements/1.1/"
   xmlns:cc="http://creativecommons.org/ns#"
   xmlns:rdf="http://www.w3.org/1999/02/22-rdf-syntax-ns#"
   xmlns:svg="http://www.w3.org/2000/svg"
   xmlns="http://www.w3.org/2000/svg"
   xmlns:sodipodi="http://sodipodi.sourceforge.net/DTD/sodipodi-0.dtd"
   xmlns:inkscape="http://www.inkscape.org/namespaces/inkscape"
   version="1.1"
   x="0px"
   y="0px"
   viewBox="0 0 995 994.99999"
   enable-background="new 0 0 1000 1000"
   xml:space="preserve"
   id="svg8"
   sodipodi:docname="loading2.svg"
   inkscape:version="0.92.4 (5da689c313, 2019-01-14)"
   width="199"
   height="199"><defs
   id="defs12" /><sodipodi:namedview
   pagecolor="#888888"
   bordercolor="#666666"
   borderopacity="1"
   objecttolerance="10"
   gridtolerance="10"
   guidetolerance="10"
   inkscape:pageopacity="1"
   inkscape:pageshadow="2"
   inkscape:window-width="1314"
   inkscape:window-height="704"
   id="namedview10"
   showgrid="false"
   inkscape:zoom="1.888"
   inkscape:cx="81.609056"
   inkscape:cy="132.3876"
   inkscape:window-x="52"
   inkscape:window-y="27"
   inkscape:window-maximized="1"
   inkscape:current-layer="svg8"
   fit-margin-top="0"
   fit-margin-left="0"
   fit-margin-right="0"
   fit-margin-bottom="0"
   scale-x="2" />
<metadata
   id="metadata2"> Svg Vector Icons : http://www.onlinewebfonts.com/icon <rdf:RDF><cc:Work
     rdf:about=""><dc:format>image/svg+xml</dc:format><dc:type
       rdf:resource="http://purl.org/dc/dcmitype/StillImage" /><dc:title></dc:title></cc:Work></rdf:RDF></metadata>
<g
   id="g6"
   style="fill:#ffffff;stroke:#000000;stroke-width:19.9999999;stroke-miterlimit:4;stroke-dasharray:none;stroke-opacity:1"
   transform="translate(-2.5,23.300031)"><path
     style="fill:#ffffff;stroke:#000000;stroke-width:20;stroke-miterlimit:4;stroke-dasharray:none;stroke-opacity:1"
     d="M 500,964.2 C 310.13078,966.96103 126.90974,846.7643 51.756302,672.75962 -30.068212,493.17344 11.299951,266.38628 152.84919,128.36139 190.14947,90.891179 233.53857,59.500393 280.8,35.8 294.53333,63.166667 308.26667,90.533333 322,117.9 170.10902,191.24645 78.211194,368.17447 106.49572,534.6425 130.93838,712.81488 289.81492,860.3191 469.4166,871.03689 645.98597,887.78342 822.82304,770.16869 877.14707,601.64119 933.93084,442.18842 873.47911,251.57096 735.88916,153.36301 718.78955,132.10744 660.25222,128.10202 689.14581,95.689541 699.16387,75.726361 709.18194,55.76318 719.2,35.8 894.03953,120.76997 1005.7353,317.01956 988.6631,510.78878 976.87158,710.14872 829.19156,891.47345 637.0214,944.88092 592.5681,957.77165 546.27704,964.21467 500,964.2 Z"
     id="path4"
     inkscape:connector-curvature="0" /></g>
</svg>